<svg id="Layer_1" data-name="Layer 1" xmlns="http://www.w3.org/2000/svg" viewBox="0 0 2022.03 2022.03">
  <defs>
    <style>.cls-1{fill:#1c155b;}.cls-2{fill:#39d4f6;}</style>
  </defs>
  <title>Logo</title>
  <path class="cls-1"
        d="M568.46,1663.08v74.33H528.94v-74.33H408.34V1635l126.13-182.24h34V1625.2h34.81v37.88Zm-39.52-135.76c-.68,1.09-1.33,2-1.94,2.87s-1.26,1.78-2,2.87q-1.64,2.25-3.17,4.71t-3.17,4.71q-6.14,8.81-12.69,18.12t-12.49,18.12v-.2q-4.71,6.76-8.7,12.39t-7.9,11.09q-3.89,5.43-7.78,11.06t-8.43,12.14H528.9Z"/>
  <path class="cls-1"
        d="M730.17,1737.41H698.84l-80.47-209.68h42.8l54.26,143.74q5.94-16,12-31.74t12.18-31.94q6.76-17.61,13.72-35.63T767,1536.53q.62-1.64,1.64-4.4l1.64-4.4h43.39Z"/>
  <path class="cls-1"
        d="M869.91,1503.57a24.19,24.19,0,0,1-9.52-1.95,26,26,0,0,1-8.09-5.32,25,25,0,0,1-5.53-8.09,25.37,25.37,0,0,1-2-10.24,24.35,24.35,0,0,1,2.15-10.24,25.19,25.19,0,0,1,5.63-8,25.55,25.55,0,0,1,8.09-5.12,24.88,24.88,0,0,1,9.32-1.84,25.94,25.94,0,0,1,9.73,1.84,26.82,26.82,0,0,1,8.19,5.12,23.49,23.49,0,0,1,5.63,7.88,25.23,25.23,0,0,1,2,10.34,26,26,0,0,1-2,10,24.68,24.68,0,0,1-13.62,13.62A26,26,0,0,1,869.91,1503.57Zm-19.45,233.84V1527.73H890v209.68Z"/>
  <path class="cls-1"
        d="M949,1679.06a186.94,186.94,0,0,0,17,13.62q7.78,5.43,13.1,7.06t10.75,2.87a41.92,41.92,0,0,0,8.91,1.23q32.56,0,32.56-24.77,0-8-8.09-14.33t-26.11-14.13a183.73,183.73,0,0,1-25.45-13.53,85.14,85.14,0,0,1-16.48-13.51,57,57,0,0,1-10-17.3,59.4,59.4,0,0,1-3.48-20.58q0-28.46,21.5-45.87,21-16.82,50.29-16.82a88.25,88.25,0,0,1,29.18,5.43,187.22,187.22,0,0,1,33.07,15.87l-15.77,36q-14.74-9.82-26.83-14.43t-21.29-4.61q-13.72,0-22.32,7a23.06,23.06,0,0,0-5.53,7.27,20,20,0,0,0-2,8.91,23.54,23.54,0,0,0,1.33,7.88A22.88,22.88,0,0,0,987,1599a58.83,58.83,0,0,0,10.54,7.37,161.19,161.19,0,0,0,16.48,8.19,251.8,251.8,0,0,1,26.51,13.93q11,6.75,16.89,13.11,14.33,14.35,14.33,37.49a59.55,59.55,0,0,1-5.32,25.39,61,61,0,0,1-15.35,20.27,77.57,77.57,0,0,1-23.34,12.6,91.13,91.13,0,0,1-30.31,4.81,85,85,0,0,1-32.15-6.65q-16.38-6.65-35-19.76Z"/>
  <path class="cls-1"
        d="M1138.34,1503.57a24.18,24.18,0,0,1-9.52-1.95,26,26,0,0,1-8.09-5.32,25,25,0,0,1-5.53-8.09,25.34,25.34,0,0,1-2-10.24,24.38,24.38,0,0,1,2.15-10.24,25.13,25.13,0,0,1,5.63-8,25.52,25.52,0,0,1,8.09-5.12,24.86,24.86,0,0,1,9.32-1.84,26,26,0,0,1,9.73,1.84,26.8,26.8,0,0,1,8.19,5.12,23.49,23.49,0,0,1,5.63,7.88,25.25,25.25,0,0,1,2,10.34,26,26,0,0,1-1.95,10,24.69,24.69,0,0,1-13.62,13.62A26,26,0,0,1,1138.34,1503.57Zm-19.45,233.84V1527.73h39.52v209.68Z"/>
  <path class="cls-1"
        d="M1302.4,1742.12q-22.93,0-41.46-7.78a87.16,87.16,0,0,1-32-23.14,105,105,0,0,1-19.66-34.2q-6.76-19.24-6.76-43.2,0-25.19,7.27-45.46a104.38,104.38,0,0,1,20.78-35.22,100.33,100.33,0,0,1,32.86-22.12,104.6,104.6,0,0,1,41.06-8q44.84,0,71.46,30.1a99.75,99.75,0,0,1,19.66,34.6q6.55,19.66,6.55,45.25,0,23.76-6.86,43.31a108.37,108.37,0,0,1-19.76,34.71,86.6,86.6,0,0,1-31.53,23Q1325.34,1742.12,1302.4,1742.12Zm1.44-180.8q-28.26,0-44.43,18.43-16.38,18.84-16.38,54.46,0,32.15,16.38,51.19,16,18.43,43.61,18.43a60.56,60.56,0,0,0,24.78-4.81,55.27,55.27,0,0,0,18.43-13,67,67,0,0,0,11.47-22.83,106.18,106.18,0,0,0,4.09-30.61q0-34.81-14.95-53t-43-18.26Z"/>
  <path class="cls-1"
        d="M1486.54,1737.41h-39.72V1527.73h39.72v12.7A73.66,73.66,0,0,1,1511,1527a90.64,90.64,0,0,1,28.77-4q17.81,0,31.64,5.94a60.2,60.2,0,0,1,23.14,17.3q9.32,11.36,14.23,27.95t4.91,38.09v125.11H1574v-120q0-26.82-9.72-40.64a35.36,35.36,0,0,0-26.72-15.46,88.61,88.61,0,0,0-29.59,9.52,54.9,54.9,0,0,0-21.4,20Z"/>
  <path class="cls-2"
        d="M1502.31,780.62c0-271.34-220-491.3-491.3-491.3s-491.3,219-491.3,491.29c0,71.88,59.32,132.51,132.5,132.51h226.3v226.3a132.23,132.23,0,0,0,132,132.5h.55C1282.36,1271.92,1502.31,1052,1502.31,780.62ZM1011,1221.8c-44.69,0-82.37-36.88-82.37-82.37V913.12H1011A132.5,132.5,0,1,0,878.52,780.61V863l-226.3-.07c-45.49,0-82.26-37.28-82.26-82.3C570,537.12,767.42,339.56,1011,339.56S1452.09,537,1452.09,780.62,1254.87,1221.8,1011,1221.8ZM928.65,780.62A82.37,82.37,0,1,1,1011,863H928.65Z"/>
</svg>
