<svg id="Layer_1" data-name="Layer 1" xmlns="http://www.w3.org/2000/svg" viewBox="0 0 1096.6 1096.6"><defs><style>.cls-1{fill:#39d4f6;}.cls-2{fill:#fff;}</style></defs><title>Logo</title><circle class="cls-1" cx="548.3" cy="548.3" r="424.78"/><path class="cls-2" d="M916.67,548.3c0-203.44-164.92-368.37-368.37-368.37S179.94,344.17,179.94,548.29c0,53.89,44.48,99.36,99.35,99.36H449V817.32a99.15,99.15,0,0,0,99.35,99.34C751.75,916.66,916.67,751.74,916.67,548.3ZM548.3,879.08c-33.51,0-61.76-27.65-61.76-61.76V647.65h61.77A99.34,99.34,0,1,0,449,548.29v61.77L279.28,610A61.87,61.87,0,0,1,217.6,548.3c0-182.58,148.06-330.7,330.7-330.7S879,365.66,879,548.3,731.13,879.08,548.3,879.08ZM486.54,548.3a61.76,61.76,0,1,1,61.76,61.76H486.54Z"/></svg>